<mxfile host="Electron" modified="2023-06-25T22:02:02.166Z" agent="Mozilla/5.0 (Windows NT 10.0; Win64; x64) AppleWebKit/537.36 (KHTML, like Gecko) draw.io/21.5.0 Chrome/112.0.5615.204 Electron/24.5.1 Safari/537.36" etag="cn_3KAKzZrqOQFmVnPa1" version="21.5.0" type="device">
  <diagram name="Page-1" id="yd3Bkk8laAO3JCmYOlG9">
    <mxGraphModel dx="1147" dy="519" grid="1" gridSize="10" guides="1" tooltips="1" connect="1" arrows="1" fold="1" page="1" pageScale="1" pageWidth="850" pageHeight="1100" math="0" shadow="0">
      <root>
        <mxCell id="0" />
        <mxCell id="1" parent="0" />
        <mxCell id="1VlidjLLNdRSinWK2i6I-15" value="" style="rounded=0;whiteSpace=wrap;html=1;align=left;" vertex="1" parent="1">
          <mxGeometry x="60" y="50" width="410" height="270" as="geometry" />
        </mxCell>
        <mxCell id="1VlidjLLNdRSinWK2i6I-1" value="AccessibilityService&lt;br&gt;- Taps" style="rounded=0;whiteSpace=wrap;html=1;align=left;" vertex="1" parent="1">
          <mxGeometry x="110" y="100" width="170" height="40" as="geometry" />
        </mxCell>
        <mxCell id="1VlidjLLNdRSinWK2i6I-2" value="" style="shape=image;verticalLabelPosition=bottom;labelBackgroundColor=default;verticalAlign=top;aspect=fixed;imageAspect=0;image=data:image/svg+xml,PHN2ZyB4bWxucz0iaHR0cDovL3d3dy53My5vcmcvMjAwMC9zdmciIGhlaWdodD0iMTI4IiB3aWR0aD0iMTI4IiB2aWV3Qm94PSIwIDAgMTI4IDEyOCI+JiN4YTsgICAgPHBhdGggdHJhbnNmb3JtPSJtYXRyaXgoMC4xMjQ5OTI0MzA2Njg0OTk1MiwwLDAsLTAuMTI0OTkyNDMwNjY4NDk5NTIsOS44NDgzNDEyODQxMDQ0NzYsMTE3LjMzMzAyMDU0NzA5OTM3KSIgc3R5bGU9ImZpbGw6IzAwODAwMDsmIzEwOyAgICAgICAgICAgICAgICAgc3Ryb2tlOm5vbmUmIzEwOyAgICAgICAgICAgICAgICAgc3Ryb2tlLXdpZHRoOjA7JiMxMDsgICAgICAgICAgICAgICAgIHN0cm9rZS1saW5lY2FwOmZsYXQ7JiMxMDsgICAgICAgICAgICAgICAgIHN0cm9rZS1saW5lam9pbjptaXRlcjsiIGQ9Ik0zMDMuMzc3IDcyMC4yMTRjMTMuMjUyIDAgMjMuOTk2IDEwLjc0MyAyMy45OTYgMjMuOTk2cy0xMC43NDMgMjMuOTk2LTIzLjk5NiAyMy45OTZ2MGMtMC4xMjcgMC4wMDMtMC4yNzcgMC4wMDQtMC40MjggMC4wMDQtNi4zOTIgMC0xMi4xNS0yLjcxNi0xNi4xODItNy4wNTZsLTAuMDEzLTAuMDE0Yy00LjE5NC00LjM5NS02Ljc3NS0xMC4zNjEtNi43NzUtMTYuOTNzMi41ODEtMTIuNTM1IDYuNzg0LTE2Ljk0bC0wLjAwOSAwLjAxMGM0LjA0NS00LjM1NCA5LjgwMy03LjA3MCAxNi4xOTUtNy4wNzAgMC4xNSAwIDAuMzAxIDAuMDAyIDAuNDUgMC4wMDRoLTAuMDIyek01NjMuMDYzIDcyMC4yMTRjMC4xMjctMC4wMDMgMC4yNzctMC4wMDQgMC40MjgtMC4wMDQgNi4zOTIgMCAxMi4xNSAyLjcxNiAxNi4xODIgNy4wNTZsMC4wMTMgMC4wMTRjNC4xOTQgNC4zOTUgNi43NzUgMTAuMzYxIDYuNzc1IDE2Ljkzcy0yLjU4MSAxMi41MzUtNi43ODQgMTYuOTRsMC4wMDktMC4wMTBjLTQuMDQ1IDQuMzU0LTkuODAzIDcuMDcwLTE2LjE5NSA3LjA3MC0wLjE1IDAtMC4zMDEtMC4wMDItMC40NS0wLjAwNGgwLjAyMmMtMTMuMjUyIDAtMjMuOTk2LTEwLjc0My0yMy45OTYtMjMuOTk2czEwLjc0My0yMy45OTYgMjMuOTk2LTIzLjk5NnYwek02My4zODYgNjA2Ljk5M2MzNC42MDUtMC4xNTQgNjIuNjE3LTI4LjE2NiA2Mi43NzEtNjIuNzU2di0yNjQuNjE3YzAuMDA3LTAuMzU3IDAuMDEyLTAuNzc5IDAuMDEyLTEuMjAxIDAtMTcuMDg0LTYuOTQ2LTMyLjU0Ny0xOC4xNjgtNDMuNzE2bC0wLjAwMi0wLjAwMmMtMTAuOTYxLTExLjM5OC0yNi4zNDEtMTguNDc5LTQzLjM3NC0xOC40NzktMC40MzUgMC0wLjg3IDAuMDA1LTEuMzAzIDAuMDE0bDAuMDY1LTAuMDAxYy0wLjEwMi0wLjAwMS0wLjIyMi0wLjAwMS0wLjM0Mi0wLjAwMS0zNC44MTggMC02My4wNDQgMjguMjI2LTYzLjA0NCA2My4wNDQgMCAwLjEwOCAwIDAuMjE3IDAuMDAxIDAuMzI1di0wLjAxNyAyNjQuNjAyYy0wLjAwNCAwLjI2NS0wLjAwNyAwLjU3Ny0wLjAwNyAwLjg4OSAwIDE3LjA2NiA3LjA3NiAzMi40OCAxOC40NTUgNDMuNDY3bDAuMDE4IDAuMDE3YzExLjExIDExLjM2MyAyNi41OTUgMTguNDEgNDMuNzI2IDE4LjQxIDAuNDIgMCAwLjgzOC0wLjAwNCAxLjI1Ni0wLjAxM2wtMC4wNjIgMC4wMDF6TTcxNS43MDggNTk1LjI4NnYtNDA5LjgzOWMwLjAwNy0wLjM2NiAwLjAxMi0wLjc5OCAwLjAxMi0xLjIzMSAwLTE4LjMyMy03LjU0My0zNC44ODQtMTkuNjk0LTQ2Ljc0OGwtMC4wMTMtMC4wMTNjLTExLjc2NC0xMi4xNTYtMjguMjI3LTE5LjcwMi00Ni40NTMtMTkuNzAyLTAuMzI1IDAtMC42NDkgMC4wMDItMC45NzMgMC4wMDdsMC4wNDktMC4wMDFoLTQ2LjE4MnYtMTM5LjcwOGMwLTM1LjAwNy0yOC4zNzktNjMuMzg2LTYzLjM4Ni02My4zODZzLTYzLjM4NiAyOC4zNzktNjMuMzg2IDYzLjM4NnYxMzkuNzA4aC04NC45MjR2LTEzOS43MDhjMC4wMDEtMC4xMDIgMC4wMDEtMC4yMjIgMC4wMDEtMC4zNDIgMC0zNC44MTgtMjguMjI2LTYzLjA0NC02My4wNDQtNjMuMDQ0LTAuMTIgMC0wLjI0MSAwLTAuMzYxIDAuMDAxaDAuMDE4Yy0wLjI2NS0wLjAwNC0wLjU3Ny0wLjAwNy0wLjg4OS0wLjAwNy0xNy4wNjYgMC0zMi40OCA3LjA3Ni00My40NjcgMTguNDU1bC0wLjAxNyAwLjAxOGMtMTEuNDAzIDExLjExNi0xOC40NzcgMjYuNjI4LTE4LjQ3NyA0My43OTEgMCAwLjM5NyAwLjAwNCAwLjc5MyAwLjAxMSAxLjE4OGwtMC4wMDEtMC4wNTktMC42MTQgMTM5LjcwOGgtNDUuNDY2Yy0wLjEzMi0wLjAwMS0wLjI4OS0wLjAwMS0wLjQ0NS0wLjAwMS0zNy4xMzcgMC02Ny4yNDMgMzAuMTA2LTY3LjI0MyA2Ny4yNDMgMCAwLjE1NyAwLjAwMSAwLjMxMyAwLjAwMiAwLjQ2OXYtMC4wMjQgNDA5LjgzOXpNNTcyLjkyOCA4NDQuNDU5YzQzLjM5NS0yMi4xOTcgNzguOTM0LTU0LjI4IDEwNC42LTkzLjQxOWwwLjYzMy0xLjAyOGMyNC42ODYtMzYuOTYzIDM5LjM5My04Mi40MTYgMzkuMzkzLTEzMS4zMDQgMC0wLjQ1OS0wLjAwMS0wLjkxNy0wLjAwNC0xLjM3NXYwLjA3MWgtNTY5LjI0MmMtMC4wMDIgMC4zODctMC4wMDQgMC44NDYtMC4wMDQgMS4zMDQgMCA0OC44ODggMTQuNzA4IDk0LjM0MSAzOS45NCAxMzIuMTc1bC0wLjU0Ny0wLjg3MWMyNi40MTMgNDAuMjU5IDYyLjE2MiA3Mi4zNjUgMTA0LjI3NyA5My43NGwxLjUzNiAwLjcwNy00My42OTEgODAuNjIzYy0xLjA1NCAxLjM1My0xLjY5IDMuMDc2LTEuNjkgNC45NDkgMCAzLjI2MiAxLjkzMSA2LjA3MyA0LjcxMiA3LjM1M2wwLjA1MCAwLjAyMWMxLjI5MSAwLjgyNiAyLjg2NSAxLjMxNiA0LjU1MyAxLjMxNiAzLjQzMyAwIDYuMzkzLTIuMDI3IDcuNzQ3LTQuOTVsMC4wMjItMC4wNTMgNDQuMzczLTgxLjIzN2MzNi40MjcgMTYuMzM0IDc4Ljk1MiAyNS44NDkgMTIzLjY5OSAyNS44NDlzODcuMjcyLTkuNTE0IDEyNS42NjMtMjYuNjMxbC0xLjk2MyAwLjc4MiA0NC4zNzMgODEuMjM3YzEuMzc2IDIuOTc1IDQuMzM2IDUuMDAzIDcuNzY5IDUuMDAzIDEuNjg5IDAgMy4yNjMtMC40OTEgNC41ODgtMS4zMzdsLTAuMDM0IDAuMDIxYzIuODMxLTEuMyA0Ljc2Mi00LjExMiA0Ljc2Mi03LjM3NCAwLTEuODcyLTAuNjM2LTMuNTk2LTEuNzA0LTQuOTY3bDAuMDE0IDAuMDE4ek04NjYuNDc1IDU0NC4wODZ2LTI2NC42MDJjMC4wMDEtMC4xMDIgMC4wMDEtMC4yMjIgMC4wMDEtMC4zNDIgMC0zNC44MTgtMjguMjI2LTYzLjA0NC02My4wNDQtNjMuMDQ0LTAuMTIgMC0wLjI0MSAwLTAuMzYxIDAuMDAxaDAuMDE4Yy0wLjI2NS0wLjAwNC0wLjU3Ny0wLjAwNy0wLjg4OS0wLjAwNy0xNy4wNjYgMC0zMi40OCA3LjA3Ni00My40NjcgMTguNDU1bC0wLjAxNyAwLjAxOGMtMTEuNDAzIDExLjExNi0xOC40NzcgMjYuNjI4LTE4LjQ3NyA0My43OTEgMCAwLjM5NyAwLjAwNCAwLjc5MyAwLjAxMSAxLjE4OGwtMC4wMDEtMC4wNTl2MjY0LjYwMmMtMC4wMDggMC4zNjktMC4wMTMgMC44MDMtMC4wMTMgMS4yMzkgMCAxNy4wMzMgNy4wODEgMzIuNDEyIDE4LjQ1OSA0My4zNTVsMC4wMjAgMC4wMTljMTEuMDU3IDExLjIxNyAyNi40MTggMTguMTY3IDQzLjQwMiAxOC4xNjcgMC4zNDIgMCAwLjY4My0wLjAwMyAxLjAyMy0wLjAwOGwtMC4wNTEgMC4wMDFjMC4zNTcgMC4wMDcgMC43NzkgMC4wMTIgMS4yMDEgMC4wMTIgMTcuMDg0IDAgMzIuNTQ3LTYuOTQ2IDQzLjcxNi0xOC4xNjhsMC4wMDItMC4wMDJjMTEuMzk3LTEwLjk2MSAxOC40NzYtMjYuMzM5IDE4LjQ3Ni00My4zNzEgMC0wLjM4OC0wLjAwNC0wLjc3Ni0wLjAxMS0xLjE2MmwwLjAwMSAwLjA1OHoiLz4mI3hhOzwvc3ZnPg==;" vertex="1" parent="1">
          <mxGeometry x="80" y="105" width="30" height="30" as="geometry" />
        </mxCell>
        <mxCell id="1VlidjLLNdRSinWK2i6I-3" value="MediaProjectionService&lt;br&gt;- Screen Capture" style="rounded=0;whiteSpace=wrap;html=1;align=left;" vertex="1" parent="1">
          <mxGeometry x="110" y="140" width="170" height="40" as="geometry" />
        </mxCell>
        <mxCell id="1VlidjLLNdRSinWK2i6I-4" value="" style="shape=image;verticalLabelPosition=bottom;labelBackgroundColor=default;verticalAlign=top;aspect=fixed;imageAspect=0;image=data:image/svg+xml,PHN2ZyB4bWxucz0iaHR0cDovL3d3dy53My5vcmcvMjAwMC9zdmciIGhlaWdodD0iMTI4IiB3aWR0aD0iMTI4IiB2aWV3Qm94PSIwIDAgMTI4IDEyOCI+JiN4YTsgICAgPHBhdGggdHJhbnNmb3JtPSJtYXRyaXgoMC4xMjQ5OTI0MzA2Njg0OTk1MiwwLDAsLTAuMTI0OTkyNDMwNjY4NDk5NTIsOS44NDgzNDEyODQxMDQ0NzYsMTE3LjMzMzAyMDU0NzA5OTM3KSIgc3R5bGU9ImZpbGw6IzAwODAwMDsmIzEwOyAgICAgICAgICAgICAgICAgc3Ryb2tlOm5vbmUmIzEwOyAgICAgICAgICAgICAgICAgc3Ryb2tlLXdpZHRoOjA7JiMxMDsgICAgICAgICAgICAgICAgIHN0cm9rZS1saW5lY2FwOmZsYXQ7JiMxMDsgICAgICAgICAgICAgICAgIHN0cm9rZS1saW5lam9pbjptaXRlcjsiIGQ9Ik0zMDMuMzc3IDcyMC4yMTRjMTMuMjUyIDAgMjMuOTk2IDEwLjc0MyAyMy45OTYgMjMuOTk2cy0xMC43NDMgMjMuOTk2LTIzLjk5NiAyMy45OTZ2MGMtMC4xMjcgMC4wMDMtMC4yNzcgMC4wMDQtMC40MjggMC4wMDQtNi4zOTIgMC0xMi4xNS0yLjcxNi0xNi4xODItNy4wNTZsLTAuMDEzLTAuMDE0Yy00LjE5NC00LjM5NS02Ljc3NS0xMC4zNjEtNi43NzUtMTYuOTNzMi41ODEtMTIuNTM1IDYuNzg0LTE2Ljk0bC0wLjAwOSAwLjAxMGM0LjA0NS00LjM1NCA5LjgwMy03LjA3MCAxNi4xOTUtNy4wNzAgMC4xNSAwIDAuMzAxIDAuMDAyIDAuNDUgMC4wMDRoLTAuMDIyek01NjMuMDYzIDcyMC4yMTRjMC4xMjctMC4wMDMgMC4yNzctMC4wMDQgMC40MjgtMC4wMDQgNi4zOTIgMCAxMi4xNSAyLjcxNiAxNi4xODIgNy4wNTZsMC4wMTMgMC4wMTRjNC4xOTQgNC4zOTUgNi43NzUgMTAuMzYxIDYuNzc1IDE2Ljkzcy0yLjU4MSAxMi41MzUtNi43ODQgMTYuOTRsMC4wMDktMC4wMTBjLTQuMDQ1IDQuMzU0LTkuODAzIDcuMDcwLTE2LjE5NSA3LjA3MC0wLjE1IDAtMC4zMDEtMC4wMDItMC40NS0wLjAwNGgwLjAyMmMtMTMuMjUyIDAtMjMuOTk2LTEwLjc0My0yMy45OTYtMjMuOTk2czEwLjc0My0yMy45OTYgMjMuOTk2LTIzLjk5NnYwek02My4zODYgNjA2Ljk5M2MzNC42MDUtMC4xNTQgNjIuNjE3LTI4LjE2NiA2Mi43NzEtNjIuNzU2di0yNjQuNjE3YzAuMDA3LTAuMzU3IDAuMDEyLTAuNzc5IDAuMDEyLTEuMjAxIDAtMTcuMDg0LTYuOTQ2LTMyLjU0Ny0xOC4xNjgtNDMuNzE2bC0wLjAwMi0wLjAwMmMtMTAuOTYxLTExLjM5OC0yNi4zNDEtMTguNDc5LTQzLjM3NC0xOC40NzktMC40MzUgMC0wLjg3IDAuMDA1LTEuMzAzIDAuMDE0bDAuMDY1LTAuMDAxYy0wLjEwMi0wLjAwMS0wLjIyMi0wLjAwMS0wLjM0Mi0wLjAwMS0zNC44MTggMC02My4wNDQgMjguMjI2LTYzLjA0NCA2My4wNDQgMCAwLjEwOCAwIDAuMjE3IDAuMDAxIDAuMzI1di0wLjAxNyAyNjQuNjAyYy0wLjAwNCAwLjI2NS0wLjAwNyAwLjU3Ny0wLjAwNyAwLjg4OSAwIDE3LjA2NiA3LjA3NiAzMi40OCAxOC40NTUgNDMuNDY3bDAuMDE4IDAuMDE3YzExLjExIDExLjM2MyAyNi41OTUgMTguNDEgNDMuNzI2IDE4LjQxIDAuNDIgMCAwLjgzOC0wLjAwNCAxLjI1Ni0wLjAxM2wtMC4wNjIgMC4wMDF6TTcxNS43MDggNTk1LjI4NnYtNDA5LjgzOWMwLjAwNy0wLjM2NiAwLjAxMi0wLjc5OCAwLjAxMi0xLjIzMSAwLTE4LjMyMy03LjU0My0zNC44ODQtMTkuNjk0LTQ2Ljc0OGwtMC4wMTMtMC4wMTNjLTExLjc2NC0xMi4xNTYtMjguMjI3LTE5LjcwMi00Ni40NTMtMTkuNzAyLTAuMzI1IDAtMC42NDkgMC4wMDItMC45NzMgMC4wMDdsMC4wNDktMC4wMDFoLTQ2LjE4MnYtMTM5LjcwOGMwLTM1LjAwNy0yOC4zNzktNjMuMzg2LTYzLjM4Ni02My4zODZzLTYzLjM4NiAyOC4zNzktNjMuMzg2IDYzLjM4NnYxMzkuNzA4aC04NC45MjR2LTEzOS43MDhjMC4wMDEtMC4xMDIgMC4wMDEtMC4yMjIgMC4wMDEtMC4zNDIgMC0zNC44MTgtMjguMjI2LTYzLjA0NC02My4wNDQtNjMuMDQ0LTAuMTIgMC0wLjI0MSAwLTAuMzYxIDAuMDAxaDAuMDE4Yy0wLjI2NS0wLjAwNC0wLjU3Ny0wLjAwNy0wLjg4OS0wLjAwNy0xNy4wNjYgMC0zMi40OCA3LjA3Ni00My40NjcgMTguNDU1bC0wLjAxNyAwLjAxOGMtMTEuNDAzIDExLjExNi0xOC40NzcgMjYuNjI4LTE4LjQ3NyA0My43OTEgMCAwLjM5NyAwLjAwNCAwLjc5MyAwLjAxMSAxLjE4OGwtMC4wMDEtMC4wNTktMC42MTQgMTM5LjcwOGgtNDUuNDY2Yy0wLjEzMi0wLjAwMS0wLjI4OS0wLjAwMS0wLjQ0NS0wLjAwMS0zNy4xMzcgMC02Ny4yNDMgMzAuMTA2LTY3LjI0MyA2Ny4yNDMgMCAwLjE1NyAwLjAwMSAwLjMxMyAwLjAwMiAwLjQ2OXYtMC4wMjQgNDA5LjgzOXpNNTcyLjkyOCA4NDQuNDU5YzQzLjM5NS0yMi4xOTcgNzguOTM0LTU0LjI4IDEwNC42LTkzLjQxOWwwLjYzMy0xLjAyOGMyNC42ODYtMzYuOTYzIDM5LjM5My04Mi40MTYgMzkuMzkzLTEzMS4zMDQgMC0wLjQ1OS0wLjAwMS0wLjkxNy0wLjAwNC0xLjM3NXYwLjA3MWgtNTY5LjI0MmMtMC4wMDIgMC4zODctMC4wMDQgMC44NDYtMC4wMDQgMS4zMDQgMCA0OC44ODggMTQuNzA4IDk0LjM0MSAzOS45NCAxMzIuMTc1bC0wLjU0Ny0wLjg3MWMyNi40MTMgNDAuMjU5IDYyLjE2MiA3Mi4zNjUgMTA0LjI3NyA5My43NGwxLjUzNiAwLjcwNy00My42OTEgODAuNjIzYy0xLjA1NCAxLjM1My0xLjY5IDMuMDc2LTEuNjkgNC45NDkgMCAzLjI2MiAxLjkzMSA2LjA3MyA0LjcxMiA3LjM1M2wwLjA1MCAwLjAyMWMxLjI5MSAwLjgyNiAyLjg2NSAxLjMxNiA0LjU1MyAxLjMxNiAzLjQzMyAwIDYuMzkzLTIuMDI3IDcuNzQ3LTQuOTVsMC4wMjItMC4wNTMgNDQuMzczLTgxLjIzN2MzNi40MjcgMTYuMzM0IDc4Ljk1MiAyNS44NDkgMTIzLjY5OSAyNS44NDlzODcuMjcyLTkuNTE0IDEyNS42NjMtMjYuNjMxbC0xLjk2MyAwLjc4MiA0NC4zNzMgODEuMjM3YzEuMzc2IDIuOTc1IDQuMzM2IDUuMDAzIDcuNzY5IDUuMDAzIDEuNjg5IDAgMy4yNjMtMC40OTEgNC41ODgtMS4zMzdsLTAuMDM0IDAuMDIxYzIuODMxLTEuMyA0Ljc2Mi00LjExMiA0Ljc2Mi03LjM3NCAwLTEuODcyLTAuNjM2LTMuNTk2LTEuNzA0LTQuOTY3bDAuMDE0IDAuMDE4ek04NjYuNDc1IDU0NC4wODZ2LTI2NC42MDJjMC4wMDEtMC4xMDIgMC4wMDEtMC4yMjIgMC4wMDEtMC4zNDIgMC0zNC44MTgtMjguMjI2LTYzLjA0NC02My4wNDQtNjMuMDQ0LTAuMTIgMC0wLjI0MSAwLTAuMzYxIDAuMDAxaDAuMDE4Yy0wLjI2NS0wLjAwNC0wLjU3Ny0wLjAwNy0wLjg4OS0wLjAwNy0xNy4wNjYgMC0zMi40OCA3LjA3Ni00My40NjcgMTguNDU1bC0wLjAxNyAwLjAxOGMtMTEuNDAzIDExLjExNi0xOC40NzcgMjYuNjI4LTE4LjQ3NyA0My43OTEgMCAwLjM5NyAwLjAwNCAwLjc5MyAwLjAxMSAxLjE4OGwtMC4wMDEtMC4wNTl2MjY0LjYwMmMtMC4wMDggMC4zNjktMC4wMTMgMC44MDMtMC4wMTMgMS4yMzkgMCAxNy4wMzMgNy4wODEgMzIuNDEyIDE4LjQ1OSA0My4zNTVsMC4wMjAgMC4wMTljMTEuMDU3IDExLjIxNyAyNi40MTggMTguMTY3IDQzLjQwMiAxOC4xNjcgMC4zNDIgMCAwLjY4My0wLjAwMyAxLjAyMy0wLjAwOGwtMC4wNTEgMC4wMDFjMC4zNTcgMC4wMDcgMC43NzkgMC4wMTIgMS4yMDEgMC4wMTIgMTcuMDg0IDAgMzIuNTQ3LTYuOTQ2IDQzLjcxNi0xOC4xNjhsMC4wMDItMC4wMDJjMTEuMzk3LTEwLjk2MSAxOC40NzYtMjYuMzM5IDE4LjQ3Ni00My4zNzEgMC0wLjM4OC0wLjAwNC0wLjc3Ni0wLjAxMS0xLjE2MmwwLjAwMSAwLjA1OHoiLz4mI3hhOzwvc3ZnPg==;" vertex="1" parent="1">
          <mxGeometry x="80" y="145" width="30" height="30" as="geometry" />
        </mxCell>
        <mxCell id="1VlidjLLNdRSinWK2i6I-5" value="" style="shape=image;verticalLabelPosition=bottom;labelBackgroundColor=default;verticalAlign=top;aspect=fixed;imageAspect=0;image=data:image/svg+xml,PHN2ZyB4bWxucz0iaHR0cDovL3d3dy53My5vcmcvMjAwMC9zdmciIGhlaWdodD0iMTI4IiB3aWR0aD0iMTI4IiB2aWV3Qm94PSIwIDAgMTI4IDEyOCI+JiN4YTsgICAgPHBhdGggdHJhbnNmb3JtPSJtYXRyaXgoNi4wOTUyMzgwOTUyMzgwOTUsMCwwLDYuMDk1MjM4MDk1MjM4MDk1LC0xMi4xOTA0NzYxOTA0NzYxOSwtOS4xNDI4NTcxNDI4NTcxNDIpIiBzdHlsZT0iZmlsbDojMDAwMEZGOyYjMTA7ICAgICAgICAgICAgICAgICBzdHJva2U6bm9uZSYjMTA7ICAgICAgICAgICAgICAgICBzdHJva2Utd2lkdGg6MDsmIzEwOyAgICAgICAgICAgICAgICAgc3Ryb2tlLWxpbmVjYXA6ZmxhdDsmIzEwOyAgICAgICAgICAgICAgICAgc3Ryb2tlLWxpbmVqb2luOm1pdGVyOyIgZD0iTTIgNVYxOUgxNFYxN0gxMkMxMC44OSAxNyAxMCAxNi4xMSAxMCAxNVY5QzEwIDcuODkgMTAuODkgNyAxMiA3SDE0VjVNMTQgN1Y5SDE2VjdNMTQgOUgxMlYxNUgxNE0xNCAxNVYxN0gxNlYxNU01IDdIN0M4LjExIDcgOSA3Ljg5IDkgOVYxNUM5IDE2LjExIDguMTEgMTcgNyAxN0g1QzMuODkgMTcgMyAxNi4xMSAzIDE1VjlDMyA3Ljg5IDMuODkgNyA1IDdNMTcgN1YxN0gxOVYxM0gyMFYxNEgyMVYxN0gyM1YxNEgyMlYxMkgyM1Y4SDIyVjdNNSA5VjE1SDdWOU0xOSA5SDIxVjExSDE5WiIvPiYjeGE7PC9zdmc+;" vertex="1" parent="1">
          <mxGeometry x="85" y="190" width="20" height="20" as="geometry" />
        </mxCell>
        <mxCell id="1VlidjLLNdRSinWK2i6I-6" value="Tesseract&lt;br&gt;- Optical Character Recognition" style="rounded=0;whiteSpace=wrap;html=1;align=left;" vertex="1" parent="1">
          <mxGeometry x="110" y="180" width="170" height="40" as="geometry" />
        </mxCell>
        <mxCell id="1VlidjLLNdRSinWK2i6I-7" value="OpenCV&lt;br&gt;- Image processing" style="rounded=0;whiteSpace=wrap;html=1;align=left;" vertex="1" parent="1">
          <mxGeometry x="110" y="220" width="170" height="40" as="geometry" />
        </mxCell>
        <mxCell id="1VlidjLLNdRSinWK2i6I-8" value="" style="shape=image;verticalLabelPosition=bottom;labelBackgroundColor=default;verticalAlign=top;aspect=fixed;imageAspect=0;image=data:image/svg+xml,PHN2ZyB4bWxucz0iaHR0cDovL3d3dy53My5vcmcvMjAwMC9zdmciIGhlaWdodD0iMTI4IiB3aWR0aD0iMTI4IiB2aWV3Qm94PSIwIDAgMTI4IDEyOCI+JiN4YTsgICAgPHBhdGggdHJhbnNmb3JtPSJtYXRyaXgoMC4xMjQ5OTk5MjYxNzc3NTg0MywwLDAsLTAuMTI0OTk5OTI2MTc3NzU4NDMsLTMuMTIxNzQ4NDk4MzI0Mjk3NEUtMDUsMTIwLjAwMDAyODY3ODAxMTMpIiBzdHlsZT0iZmlsbDojMDAwMEZGOyYjMTA7ICAgICAgICAgICAgICAgICBzdHJva2U6bm9uZSYjMTA7ICAgICAgICAgICAgICAgICBzdHJva2Utd2lkdGg6MDsmIzEwOyAgICAgICAgICAgICAgICAgc3Ryb2tlLWxpbmVjYXA6ZmxhdDsmIzEwOyAgICAgICAgICAgICAgICAgc3Ryb2tlLWxpbmVqb2luOm1pdGVyOyIgZD0iTTI5Ny4yOTIgNzk3Ljg3MmM4Ni40MjIgMTYyLjgyIDMxNy45MzQgMTcxLjM2NCA0MTUuNzIxIDE1LjM0MiA3NS43NzYtMTIwLjkwMyAyNy41OTItMjcwLjk3LTgzLjY0Ny0zMzUuNTc1bC03Mi4yNDMgMTI1LjEyOWM0NC4yNTQgMjUuNzAyIDYzLjQyMyA4NS40MDMgMzMuMjc3IDEzMy41MDEtMzguOTAyIDYyLjA3MC0xMzEuMDA0IDU4LjY3MS0xNjUuMzg1LTYuMTAzLTI1LjQ0MS00Ny45MzItNS4yNzgtMTAzLjEgMzYuNjE4LTEyNy40NTlsLTcyLjI5Ny0xMjUuMjIxYy0xMDUuMzEyIDYxLjIyOS0xNTUuOTk1IDE5OS45MDQtOTIuMDQ0IDMyMC4zODd6TTMzNS45MzMgMjExLjA1OGMtMC4wODctNDguNTU2LTM3Ljg3LTkzLjc5Ni05Mi4xODYtOTUuOC03My4yODQtMi43MDQtMTIyLjE3NiA3NS4zMDQtODcuNzk0IDE0MC4wNzggMjYuNTg0IDUwLjA4NCA4Ny42NTkgNjMuNDM4IDEzMS45ODYgMzguMjQ1bDcyLjQzMyAxMjUuNDU4Yy0xMTEuNDQ4IDYzLjU5OC0yNjUuMjQ5IDMwLjAyOS0zMzIuMTQxLTk1Ljk5NS04Ni40MjItMTYyLjgyIDM2LjQ3NS0zNTguOTA2IDIyMC42ODQtMzUyLjEwOCAxMzYuMjc1IDUuMDI5IDIzMS4xNSAxMTguMzMxIDIzMS43MjIgMjQwLjEyM2gtMTQ0LjcwNHpNOTAzLjQyOSA0MTguNDg2bC03Mi4yNDMtMTI1LjEyOGM0NC40MDYtMjUuNjM0IDYzLjY4NC04NS40NSAzMy40OS0xMzMuNjI1LTM4LjkwMi02Mi4wNzAtMTMxLjAwNC01OC42NzEtMTY1LjM4NSA2LjEwMy0yNS40ODQgNDguMDEzLTUuMjEgMTAzLjI4NiAzNi44MzEgMTI3LjU4MmwtNzIuMjk3IDEyNS4yMjFjLTEwNS40NTYtNjEuMTY2LTE1Ni4yNTEtMTk5Ljk0NS05Mi4yNTctMzIwLjUxIDg2LjQyMi0xNjIuODIgMzE3LjkzNC0xNzEuMzY0IDQxNS43MjEtMTUuMzQyIDc1LjgyNCAxMjAuOTggMjcuNTMxIDI3MS4xNjItODMuODU5IDMzNS42OTl6Ii8+JiN4YTs8L3N2Zz4=;" vertex="1" parent="1">
          <mxGeometry x="85" y="230" width="20" height="20" as="geometry" />
        </mxCell>
        <mxCell id="1VlidjLLNdRSinWK2i6I-9" value="YantraJS&lt;br&gt;- JavaScript scripting engine" style="rounded=0;whiteSpace=wrap;html=1;align=left;" vertex="1" parent="1">
          <mxGeometry x="110" y="260" width="170" height="40" as="geometry" />
        </mxCell>
        <mxCell id="1VlidjLLNdRSinWK2i6I-10" value="" style="shape=image;verticalLabelPosition=bottom;labelBackgroundColor=default;verticalAlign=top;aspect=fixed;imageAspect=0;image=data:image/svg+xml,PHN2ZyB4bWxucz0iaHR0cDovL3d3dy53My5vcmcvMjAwMC9zdmciIGhlaWdodD0iMTI4IiB3aWR0aD0iMTI4IiB2aWV3Qm94PSIwIDAgMTI4IDEyOCI+JiN4YTsgICAgPHBhdGggdHJhbnNmb3JtPSJtYXRyaXgoNS4zMzMzMzMzMzMzMzMzMzMsMCwwLDUuMzMzMzMzMzMzMzMzMzMzLDAsMCkiIHN0eWxlPSJmaWxsOiMwMDAwRkY7JiMxMDsgICAgICAgICAgICAgICAgIHN0cm9rZTpub25lJiMxMDsgICAgICAgICAgICAgICAgIHN0cm9rZS13aWR0aDowOyYjMTA7ICAgICAgICAgICAgICAgICBzdHJva2UtbGluZWNhcDpmbGF0OyYjMTA7ICAgICAgICAgICAgICAgICBzdHJva2UtbGluZWpvaW46bWl0ZXI7IiBkPSJNMCAwaDI0djI0SDBWMHptMjIuMDM0IDE4LjI3NmMtLjE3NS0xLjA5NS0uODg4LTIuMDE1LTMuMDAzLTIuODczLS43MzYtLjM0NS0xLjU1NC0uNTg1LTEuNzk3LTEuMTQtLjA5MS0uMzMtLjEwNS0uNTEtLjA0Ni0uNzA1LjE1LS42NDYuOTE1LS44NCAxLjUxNS0uNjYuMzkuMTIuNzUuNDIuOTc2LjkgMS4wMzQtLjY3NiAxLjAzNC0uNjc2IDEuNzU1LTEuMTI1LS4yNy0uNDItLjQwNC0uNjAxLS41ODYtLjc4LS42My0uNzA1LTEuNDY5LTEuMDY1LTIuODM0LTEuMDM0bC0uNzA1LjA4OWMtLjY3Ni4xNjUtMS4zMi41MjUtMS43MSAxLjAwNS0xLjE0IDEuMjkxLS44MTEgMy41NDEuNTY5IDQuNDcxIDEuMzY1IDEuMDIgMy4zNjEgMS4yNDQgMy42MTYgMi4yMDUuMjQgMS4xNy0uODcgMS41NDUtMS45NjYgMS40MS0uODExLS4xOC0xLjI2LS41ODYtMS43NTUtMS4zMzZsLTEuODMgMS4wNTFjLjIxLjQ4LjQ1LjY4OS44MSAxLjEwOSAxLjc0IDEuNzU2IDYuMDkgMS42NjYgNi44NzEtMS4wMDQuMDI5LS4wOS4yNC0uNzA1LjA3NC0xLjY1bC4wNDYuMDY3em0tOC45ODMtNy4yNDVoLTIuMjQ4YzAgMS45MzgtLjAwOSAzLjg2NC0uMDA5IDUuODA1IDAgMS4yMzIuMDYzIDIuMzYzLS4xMzggMi43MTEtLjMzLjY4OS0xLjE4LjYwMS0xLjU2Ni40OC0uMzk2LS4xOTYtLjU5Ny0uNDY2LS44My0uODU1LS4wNjMtLjEwNS0uMTEtLjE5Ni0uMTI3LS4xOTZsLTEuODI1IDEuMTI1Yy4zMDUuNjMuNzUgMS4xNzIgMS4zMjQgMS41MTcuODU1LjUxIDIuMDA0LjY3NSAzLjIwNy40MDUuNzgzLS4yMjYgMS40NTgtLjY5MSAxLjgxMS0xLjQxMS41MS0uOTMuNDAyLTIuMDcuMzk3LTMuMzQ2LjAxMi0yLjA1NCAwLTQuMTA5IDAtNi4xNzlsLjAwNC0uMDU2eiIvPiYjeGE7PC9zdmc+;" vertex="1" parent="1">
          <mxGeometry x="86" y="271" width="18" height="18" as="geometry" />
        </mxCell>
        <mxCell id="1VlidjLLNdRSinWK2i6I-11" value="WindowManager&lt;br&gt;- UI Overlays" style="rounded=0;whiteSpace=wrap;html=1;align=left;" vertex="1" parent="1">
          <mxGeometry x="110" y="60" width="170" height="40" as="geometry" />
        </mxCell>
        <mxCell id="1VlidjLLNdRSinWK2i6I-12" value="" style="shape=image;verticalLabelPosition=bottom;labelBackgroundColor=default;verticalAlign=top;aspect=fixed;imageAspect=0;image=data:image/svg+xml,PHN2ZyB4bWxucz0iaHR0cDovL3d3dy53My5vcmcvMjAwMC9zdmciIGhlaWdodD0iMTI4IiB3aWR0aD0iMTI4IiB2aWV3Qm94PSIwIDAgMTI4IDEyOCI+JiN4YTsgICAgPHBhdGggdHJhbnNmb3JtPSJtYXRyaXgoMC4xMjQ5OTI0MzA2Njg0OTk1MiwwLDAsLTAuMTI0OTkyNDMwNjY4NDk5NTIsOS44NDgzNDEyODQxMDQ0NzYsMTE3LjMzMzAyMDU0NzA5OTM3KSIgc3R5bGU9ImZpbGw6IzAwODAwMDsmIzEwOyAgICAgICAgICAgICAgICAgc3Ryb2tlOm5vbmUmIzEwOyAgICAgICAgICAgICAgICAgc3Ryb2tlLXdpZHRoOjA7JiMxMDsgICAgICAgICAgICAgICAgIHN0cm9rZS1saW5lY2FwOmZsYXQ7JiMxMDsgICAgICAgICAgICAgICAgIHN0cm9rZS1saW5lam9pbjptaXRlcjsiIGQ9Ik0zMDMuMzc3IDcyMC4yMTRjMTMuMjUyIDAgMjMuOTk2IDEwLjc0MyAyMy45OTYgMjMuOTk2cy0xMC43NDMgMjMuOTk2LTIzLjk5NiAyMy45OTZ2MGMtMC4xMjcgMC4wMDMtMC4yNzcgMC4wMDQtMC40MjggMC4wMDQtNi4zOTIgMC0xMi4xNS0yLjcxNi0xNi4xODItNy4wNTZsLTAuMDEzLTAuMDE0Yy00LjE5NC00LjM5NS02Ljc3NS0xMC4zNjEtNi43NzUtMTYuOTNzMi41ODEtMTIuNTM1IDYuNzg0LTE2Ljk0bC0wLjAwOSAwLjAxMGM0LjA0NS00LjM1NCA5LjgwMy03LjA3MCAxNi4xOTUtNy4wNzAgMC4xNSAwIDAuMzAxIDAuMDAyIDAuNDUgMC4wMDRoLTAuMDIyek01NjMuMDYzIDcyMC4yMTRjMC4xMjctMC4wMDMgMC4yNzctMC4wMDQgMC40MjgtMC4wMDQgNi4zOTIgMCAxMi4xNSAyLjcxNiAxNi4xODIgNy4wNTZsMC4wMTMgMC4wMTRjNC4xOTQgNC4zOTUgNi43NzUgMTAuMzYxIDYuNzc1IDE2Ljkzcy0yLjU4MSAxMi41MzUtNi43ODQgMTYuOTRsMC4wMDktMC4wMTBjLTQuMDQ1IDQuMzU0LTkuODAzIDcuMDcwLTE2LjE5NSA3LjA3MC0wLjE1IDAtMC4zMDEtMC4wMDItMC40NS0wLjAwNGgwLjAyMmMtMTMuMjUyIDAtMjMuOTk2LTEwLjc0My0yMy45OTYtMjMuOTk2czEwLjc0My0yMy45OTYgMjMuOTk2LTIzLjk5NnYwek02My4zODYgNjA2Ljk5M2MzNC42MDUtMC4xNTQgNjIuNjE3LTI4LjE2NiA2Mi43NzEtNjIuNzU2di0yNjQuNjE3YzAuMDA3LTAuMzU3IDAuMDEyLTAuNzc5IDAuMDEyLTEuMjAxIDAtMTcuMDg0LTYuOTQ2LTMyLjU0Ny0xOC4xNjgtNDMuNzE2bC0wLjAwMi0wLjAwMmMtMTAuOTYxLTExLjM5OC0yNi4zNDEtMTguNDc5LTQzLjM3NC0xOC40NzktMC40MzUgMC0wLjg3IDAuMDA1LTEuMzAzIDAuMDE0bDAuMDY1LTAuMDAxYy0wLjEwMi0wLjAwMS0wLjIyMi0wLjAwMS0wLjM0Mi0wLjAwMS0zNC44MTggMC02My4wNDQgMjguMjI2LTYzLjA0NCA2My4wNDQgMCAwLjEwOCAwIDAuMjE3IDAuMDAxIDAuMzI1di0wLjAxNyAyNjQuNjAyYy0wLjAwNCAwLjI2NS0wLjAwNyAwLjU3Ny0wLjAwNyAwLjg4OSAwIDE3LjA2NiA3LjA3NiAzMi40OCAxOC40NTUgNDMuNDY3bDAuMDE4IDAuMDE3YzExLjExIDExLjM2MyAyNi41OTUgMTguNDEgNDMuNzI2IDE4LjQxIDAuNDIgMCAwLjgzOC0wLjAwNCAxLjI1Ni0wLjAxM2wtMC4wNjIgMC4wMDF6TTcxNS43MDggNTk1LjI4NnYtNDA5LjgzOWMwLjAwNy0wLjM2NiAwLjAxMi0wLjc5OCAwLjAxMi0xLjIzMSAwLTE4LjMyMy03LjU0My0zNC44ODQtMTkuNjk0LTQ2Ljc0OGwtMC4wMTMtMC4wMTNjLTExLjc2NC0xMi4xNTYtMjguMjI3LTE5LjcwMi00Ni40NTMtMTkuNzAyLTAuMzI1IDAtMC42NDkgMC4wMDItMC45NzMgMC4wMDdsMC4wNDktMC4wMDFoLTQ2LjE4MnYtMTM5LjcwOGMwLTM1LjAwNy0yOC4zNzktNjMuMzg2LTYzLjM4Ni02My4zODZzLTYzLjM4NiAyOC4zNzktNjMuMzg2IDYzLjM4NnYxMzkuNzA4aC04NC45MjR2LTEzOS43MDhjMC4wMDEtMC4xMDIgMC4wMDEtMC4yMjIgMC4wMDEtMC4zNDIgMC0zNC44MTgtMjguMjI2LTYzLjA0NC02My4wNDQtNjMuMDQ0LTAuMTIgMC0wLjI0MSAwLTAuMzYxIDAuMDAxaDAuMDE4Yy0wLjI2NS0wLjAwNC0wLjU3Ny0wLjAwNy0wLjg4OS0wLjAwNy0xNy4wNjYgMC0zMi40OCA3LjA3Ni00My40NjcgMTguNDU1bC0wLjAxNyAwLjAxOGMtMTEuNDAzIDExLjExNi0xOC40NzcgMjYuNjI4LTE4LjQ3NyA0My43OTEgMCAwLjM5NyAwLjAwNCAwLjc5MyAwLjAxMSAxLjE4OGwtMC4wMDEtMC4wNTktMC42MTQgMTM5LjcwOGgtNDUuNDY2Yy0wLjEzMi0wLjAwMS0wLjI4OS0wLjAwMS0wLjQ0NS0wLjAwMS0zNy4xMzcgMC02Ny4yNDMgMzAuMTA2LTY3LjI0MyA2Ny4yNDMgMCAwLjE1NyAwLjAwMSAwLjMxMyAwLjAwMiAwLjQ2OXYtMC4wMjQgNDA5LjgzOXpNNTcyLjkyOCA4NDQuNDU5YzQzLjM5NS0yMi4xOTcgNzguOTM0LTU0LjI4IDEwNC42LTkzLjQxOWwwLjYzMy0xLjAyOGMyNC42ODYtMzYuOTYzIDM5LjM5My04Mi40MTYgMzkuMzkzLTEzMS4zMDQgMC0wLjQ1OS0wLjAwMS0wLjkxNy0wLjAwNC0xLjM3NXYwLjA3MWgtNTY5LjI0MmMtMC4wMDIgMC4zODctMC4wMDQgMC44NDYtMC4wMDQgMS4zMDQgMCA0OC44ODggMTQuNzA4IDk0LjM0MSAzOS45NCAxMzIuMTc1bC0wLjU0Ny0wLjg3MWMyNi40MTMgNDAuMjU5IDYyLjE2MiA3Mi4zNjUgMTA0LjI3NyA5My43NGwxLjUzNiAwLjcwNy00My42OTEgODAuNjIzYy0xLjA1NCAxLjM1My0xLjY5IDMuMDc2LTEuNjkgNC45NDkgMCAzLjI2MiAxLjkzMSA2LjA3MyA0LjcxMiA3LjM1M2wwLjA1MCAwLjAyMWMxLjI5MSAwLjgyNiAyLjg2NSAxLjMxNiA0LjU1MyAxLjMxNiAzLjQzMyAwIDYuMzkzLTIuMDI3IDcuNzQ3LTQuOTVsMC4wMjItMC4wNTMgNDQuMzczLTgxLjIzN2MzNi40MjcgMTYuMzM0IDc4Ljk1MiAyNS44NDkgMTIzLjY5OSAyNS44NDlzODcuMjcyLTkuNTE0IDEyNS42NjMtMjYuNjMxbC0xLjk2MyAwLjc4MiA0NC4zNzMgODEuMjM3YzEuMzc2IDIuOTc1IDQuMzM2IDUuMDAzIDcuNzY5IDUuMDAzIDEuNjg5IDAgMy4yNjMtMC40OTEgNC41ODgtMS4zMzdsLTAuMDM0IDAuMDIxYzIuODMxLTEuMyA0Ljc2Mi00LjExMiA0Ljc2Mi03LjM3NCAwLTEuODcyLTAuNjM2LTMuNTk2LTEuNzA0LTQuOTY3bDAuMDE0IDAuMDE4ek04NjYuNDc1IDU0NC4wODZ2LTI2NC42MDJjMC4wMDEtMC4xMDIgMC4wMDEtMC4yMjIgMC4wMDEtMC4zNDIgMC0zNC44MTgtMjguMjI2LTYzLjA0NC02My4wNDQtNjMuMDQ0LTAuMTIgMC0wLjI0MSAwLTAuMzYxIDAuMDAxaDAuMDE4Yy0wLjI2NS0wLjAwNC0wLjU3Ny0wLjAwNy0wLjg4OS0wLjAwNy0xNy4wNjYgMC0zMi40OCA3LjA3Ni00My40NjcgMTguNDU1bC0wLjAxNyAwLjAxOGMtMTEuNDAzIDExLjExNi0xOC40NzcgMjYuNjI4LTE4LjQ3NyA0My43OTEgMCAwLjM5NyAwLjAwNCAwLjc5MyAwLjAxMSAxLjE4OGwtMC4wMDEtMC4wNTl2MjY0LjYwMmMtMC4wMDggMC4zNjktMC4wMTMgMC44MDMtMC4wMTMgMS4yMzkgMCAxNy4wMzMgNy4wODEgMzIuNDEyIDE4LjQ1OSA0My4zNTVsMC4wMjAgMC4wMTljMTEuMDU3IDExLjIxNyAyNi40MTggMTguMTY3IDQzLjQwMiAxOC4xNjcgMC4zNDIgMCAwLjY4My0wLjAwMyAxLjAyMy0wLjAwOGwtMC4wNTEgMC4wMDFjMC4zNTcgMC4wMDcgMC43NzkgMC4wMTIgMS4yMDEgMC4wMTIgMTcuMDg0IDAgMzIuNTQ3LTYuOTQ2IDQzLjcxNi0xOC4xNjhsMC4wMDItMC4wMDJjMTEuMzk3LTEwLjk2MSAxOC40NzYtMjYuMzM5IDE4LjQ3Ni00My4zNzEgMC0wLjM4OC0wLjAwNC0wLjc3Ni0wLjAxMS0xLjE2MmwwLjAwMSAwLjA1OHoiLz4mI3hhOzwvc3ZnPg==;" vertex="1" parent="1">
          <mxGeometry x="80" y="65" width="30" height="30" as="geometry" />
        </mxCell>
        <mxCell id="1VlidjLLNdRSinWK2i6I-14" value="" style="shape=image;verticalLabelPosition=bottom;labelBackgroundColor=default;verticalAlign=top;aspect=fixed;imageAspect=0;image=data:image/svg+xml,PHN2ZyB4bWxucz0iaHR0cDovL3d3dy53My5vcmcvMjAwMC9zdmciIHZpZXdCb3g9IjAgMCAxNDAgMTI4IiBpZD0ic3ZnNCIgdmVyc2lvbj0iMS4xIiBoZWlnaHQ9IjEyOCIgd2lkdGg9IjE0MCI+JiN4YTsgIDxkZWZzIGlkPSJkZWZzOCIvPiYjeGE7ICAmI3hhOyAgPGcgdHJhbnNmb3JtPSJ0cmFuc2xhdGUoMC4zOTYzNTU5NykiIGlkPSJnNDkyIj4mI3hhOyAgICA8ZyB0cmFuc2Zvcm09InRyYW5zbGF0ZSg1LjY0MjEyMjMpIiBpZD0iZzMxOSI+JiN4YTsgICAgICA8cGF0aCBjbGFzcz0iVW5vcHRpbWljZWRUcmFuc2Zvcm1zIiB0cmFuc2Zvcm09Im1hdHJpeCgwLjA3Njk1MzE0LDAsMCwtMC4wNzY5NTMxNCw5LjgyNDk5MDksMTA4LjMpIiBpZD0icGF0aDIiIHN0eWxlPSJmaWxsOiMwMDAwZmY7c3Ryb2tlLWxpbmVqb2luOm1pdGVyIiBkPSJtIDQ5MywxMDUzIGMgMjIsMCAzOSwxOCAzOSwzOSAwLDIxIC0xNywzOSAtMzksMzkgLTIxLDAgLTM4LC0xOCAtMzgsLTM5IDAsLTIxIDE3LC0zOSAzOCwtMzkgeiBtIDQyMiwwIGMgMjEsMCAzOCwxOCAzOCwzOSAwLDIxIC0xNywzOSAtMzgsMzkgLTIyLDAgLTM5LC0xOCAtMzksLTM5IDAsLTIxIDE3LC0zOSAzOSwtMzkgeiBNIDExNjMsODUwIFYgMTg0IGMgMCwtNjEgLTQ5LC0xMTAgLTEwOSwtMTEwIGggLTc1IHYgLTIyNyBjIDAsLTU3IC00NiwtMTAzIC0xMDMsLTEwMyAtNTcsMCAtMTAzLDQ2IC0xMDMsMTAzIFYgNzQgSCA2MzUgdiAtMjI3IGMgMCwtNTcgLTQ2LC0xMDMgLTEwMywtMTAzIC01NiwwIC0xMDIsNDYgLTEwMiwxMDMgbCAtMSwyMjcgaCAtNzQgYyAtNjEsMCAtMTEwLDQ5IC0xMTAsMTEwIHYgNjY2IHogbSAtMjMyLDQwNSBjIDE0MCwtNzIgMjM1LC0yMTAgMjM1LC0zNjkgSCAyNDEgYyAwLDE1OSA5NSwyOTcgMjM2LDM2OSBsIC03MSwxMzEgYyAtNCw3IC0yLDE2IDUsMjAgNywzIDE2LDEgMjAsLTYgbCA3MiwtMTMyIGMgNjEsMjcgMTI5LDQyIDIwMSw0MiA3MiwwIDE0MCwtMTUgMjAxLC00MiBsIDcyLDEzMiBjIDQsNyAxMyw5IDIwLDYgNywtNCA5LC0xMyA1LC0yMCB6Ii8+JiN4YTsgICAgPC9nPiYjeGE7ICAgIDxwYXRoIGlkPSJwYXRoMzI5IiBzdHlsZT0iZmlsbDojMDAwMGZmO3N0cm9rZS1saW5lam9pbjptaXRlciIgZD0iTSAzMi43MTAzMzgsMzEuMTg0NTU1IDE0LjQ4NTc2OCwzLjU2NTY2NDQgQyAxMi4wNjk5NTgsLTAuMDk1NDQzMzcgNy4xNjU3Njc2LC0xLjEwMDQxODMgMy41MDQ2Njc2LDEuMzE1Mzk3NyAtMC4wOTIyMjI0NSwzLjY4ODgzMDQgLTEuMDk3MTkyNCw4LjU5MzAxNDQgMS4zMTg2Mjc2LDEyLjI1NDEyMSBMIDE5LjU0MzE5OCwzOS44NzMwMTggYyAyLjQxNTgxLDMuNjYxMTA4IDcuMjc3NjEsNC42MDE4NTIgMTAuODc0NSwyLjIyODQxNyAzLjY2MTEsLTIuNDE1ODEzIDQuNzA4NDU5LC03LjI1NTc2NSAyLjI5MjY0LC0xMC45MTY4OCB6Ii8+JiN4YTsgICAgPHBhdGggaWQ9InBhdGgzMjktMCIgc3R5bGU9ImZpbGw6IzAwMDBmZjtzdHJva2UtbGluZWpvaW46bWl0ZXIiIGQ9Ik0gMTM3LjkwNDgxLDEyLjIyMDMzOSAxMTkuNjgwMjQsMzkuODM5MjMgYyAtMi40MTU4MSwzLjY2MTEwOCAtNy4zMiw0LjY2NjA4MyAtMTAuOTgxMSwyLjI1MDI2NyAtMy41OTY4OSwtMi4zNzM0MzMgLTQuNjAxODYsLTcuMjc3NjE3IC0yLjE4NjA0LC0xMC45Mzg3MjQgTCAxMjQuNzM3NjcsMy41MzE4NzYzIGMgMi40MTU4MSwtMy42NjExMDgwNiA3LjI3NzYxLC00LjYwMTg1MiAxMC44NzQ1LC0yLjIyODQxNyAzLjY2MTEsMi40MTU4MTMgNC43MDg0NSw3LjI1NTc2NSAyLjI5MjY0LDEwLjkxNjg3OTcgeiIvPiYjeGE7ICA8L2c+JiN4YTs8L3N2Zz4=;" vertex="1" parent="1">
          <mxGeometry x="20" y="20" width="76.56" height="70" as="geometry" />
        </mxCell>
        <mxCell id="1VlidjLLNdRSinWK2i6I-16" value="YeetMacro Engine" style="text;html=1;strokeColor=none;fillColor=none;align=center;verticalAlign=middle;whiteSpace=wrap;rounded=0;" vertex="1" parent="1">
          <mxGeometry x="96.56" y="20" width="113.44" height="30" as="geometry" />
        </mxCell>
        <mxCell id="1VlidjLLNdRSinWK2i6I-18" value="Capture/Edit &lt;br&gt;Patterns" style="html=1;shadow=0;dashed=0;align=center;verticalAlign=middle;shape=mxgraph.arrows2.arrow;dy=0;dx=30;notch=30;" vertex="1" parent="1">
          <mxGeometry x="300" y="65" width="160" height="55" as="geometry" />
        </mxCell>
        <mxCell id="1VlidjLLNdRSinWK2i6I-20" value="Configure &lt;br&gt;Settings" style="html=1;shadow=0;dashed=0;align=center;verticalAlign=middle;shape=mxgraph.arrows2.arrow;dy=0;dx=30;notch=30;" vertex="1" parent="1">
          <mxGeometry x="300" y="145" width="160" height="55" as="geometry" />
        </mxCell>
        <mxCell id="1VlidjLLNdRSinWK2i6I-21" value="Script &lt;br&gt;Logic" style="html=1;shadow=0;dashed=0;align=center;verticalAlign=middle;shape=mxgraph.arrows2.arrow;dy=0;dx=30;notch=30;" vertex="1" parent="1">
          <mxGeometry x="300" y="220" width="160" height="55" as="geometry" />
        </mxCell>
      </root>
    </mxGraphModel>
  </diagram>
</mxfile>
